<svg width="14" height="14" viewBox="0 0 14 14" fill="none" xmlns="http://www.w3.org/2000/svg">
<path d="M10.3333 3H13.6667V4.33334H12.3333V13C12.3333 13.1768 12.2631 13.3464 12.1381 13.4714C12.0131 13.5964 11.8435 13.6667 11.6667 13.6667H2.33334C2.15653 13.6667 1.98696 13.5964 1.86194 13.4714C1.73691 13.3464 1.66668 13.1768 1.66668 13V4.33334H0.333344V3H3.66668V1C3.66668 0.823192 3.73691 0.653622 3.86194 0.528598C3.98696 0.403574 4.15653 0.333336 4.33334 0.333336H9.66668C9.84349 0.333336 10.0131 0.403574 10.1381 0.528598C10.2631 0.653622 10.3333 0.823192 10.3333 1V3ZM5.00001 6.33334V10.3333H6.33334V6.33334H5.00001ZM7.66668 6.33334V10.3333H9.00001V6.33334H7.66668ZM5.00001 1.66667V3H9.00001V1.66667H5.00001Z" fill="#FA4A0C"/>
</svg>
