<svg width="13" height="13" viewBox="0 0 13 13" fill="none" xmlns="http://www.w3.org/2000/svg">
<path d="M9.17133 1L4.194 5.97733L4.19933 8.80867L7.02467 8.804L12 3.82867V12.3333C12 12.5101 11.9298 12.6797 11.8047 12.8047C11.6797 12.9298 11.5101 13 11.3333 13H0.666667C0.489856 13 0.320286 12.9298 0.195262 12.8047C0.0702379 12.6797 0 12.5101 0 12.3333V1.66667C0 1.48986 0.0702379 1.32029 0.195262 1.19526C0.320286 1.07024 0.489856 1 0.666667 1H9.17133ZM11.6567 0.400002L12.6 1.344L6.472 7.472L5.53067 7.474L5.52933 6.52934L11.6567 0.400002Z" fill="#FA4A0C"/>
</svg>
